<svg width="512" height="512" viewBox="0 0 512 512" fill="none" xmlns="http://www.w3.org/2000/svg">
<g clip-path="url(#clip0_3_33)">
<rect width="512" height="512" rx="256" fill="#2A5EB4"/>
<path d="M135 374V124H294.884V166.908H183.991V225.418H287.602V268.681H183.991V331.092H294.884V374H135Z" fill="white"/>
<path d="M331.374 374V317.262H385V374H331.374Z" fill="white"/>
<path d="M406.652 583.739C401.618 614.08 376.989 637.353 346.411 640.663L247.942 651.323C203.283 656.157 158.329 645.351 120.746 620.748L52.4215 576.02C29.5952 561.077 17.7463 534.065 22.2119 507.15L28.3441 470.191C33.5961 438.537 69.6481 422.723 96.4936 440.298V440.298C116.509 453.402 143.345 448.246 157.145 428.704V428.704C173.509 405.531 207.119 403.27 226.359 424.116L228.368 426.293C237.793 436.505 251.509 441.635 265.323 440.116L272.567 439.319C290.547 437.34 307.153 449.16 311.172 466.796V466.796C315.952 487.774 338.106 499.75 358.276 492.26L362.322 490.758C390.684 480.227 419.836 504.279 414.884 534.125L406.652 583.739Z" fill="white" fill-opacity="0.22"/>
<path d="M234.883 -61.9993C250.05 -85.8835 279.876 -95.8755 306.37 -85.9478L426.796 -40.8226C462.968 -27.2688 494.894 -4.35908 519.317 25.5676L593.131 116.019C604.961 130.515 608.939 149.887 603.78 167.872V167.872C591.47 210.783 536.893 223.61 506.757 190.674L489.487 171.8C479.263 160.626 462.77 157.459 449.03 163.831V163.831C424.992 174.979 397.442 156.052 399.96 129.675V129.675C401.946 108.876 385.035 91.1472 364.165 92.1497L330.874 93.749C312.554 94.6291 297.564 79.3364 298.81 61.0373V61.0373C299.887 45.2146 288.722 31.1811 273.062 28.6753L257.714 26.2197C223.866 20.8038 206.619 -17.4897 224.994 -46.4267L234.883 -61.9993Z" fill="white" fill-opacity="0.22"/>
</g>
<defs>
<clipPath id="clip0_3_33">
<rect width="512" height="512" rx="256" fill="white"/>
</clipPath>
</defs>
</svg>
